<?xml version="1.0" ?><svg viewBox="0 0 128 128" xmlns="http://www.w3.org/2000/svg"><defs><style>.cls-1{fill:#4d91bb;}.cls-2{fill:#7ad0cb;}.cls-3{fill:#c3edf5;}.cls-4{fill:#1fa49c;}.cls-5{fill:#87dbec;}.cls-6{fill:#2175aa;}</style></defs><title/><g data-name="01 Web Analytics" id="_01_Web_Analytics"><path class="cls-1" d="M112,64A48,48,0,1,1,64,16,48,48,0,0,1,112,64ZM64,46A18,18,0,1,0,82,64,18,18,0,0,0,64,46Z"/><path class="cls-2" d="M64,46A18,18,0,0,1,82,64h30A48,48,0,0,0,64,16Z"/><path class="cls-3" d="M76.73,76.72h0L97.94,97.94h0A47.85,47.85,0,0,0,112,64H82A17.94,17.94,0,0,1,76.73,76.72Z"/><path class="cls-4" d="M64,16V46l3.32-29.87C66.22,16.05,65.12,16,64,16Z"/><path class="cls-5" d="M112,64H82l29.87,3.32C111.95,66.22,112,65.12,112,64Z"/><path class="cls-6" d="M97.94,98,76.73,76.77l18.78,23.47C96.34,99.52,97.15,98.78,97.94,98Z"/></g></svg>